<svg id="visual" viewBox="0 0 960 300" width="960" height="300" xmlns="http://www.w3.org/2000/svg" xmlns:xlink="http://www.w3.org/1999/xlink" version="1.1"><rect x="0" y="0" width="960" height="300" fill="#fff"></rect><path d="M0 75L22.8 76.5C45.7 78 91.3 81 137 77.3C182.7 73.7 228.3 63.3 274 58.2C319.7 53 365.3 53 411.2 60.8C457 68.7 503 84.3 548.8 92C594.7 99.7 640.3 99.3 686 98.7C731.7 98 777.3 97 823 94.5C868.7 92 914.3 88 937.2 86L960 84L960 0L937.2 0C914.3 0 868.7 0 823 0C777.3 0 731.7 0 686 0C640.3 0 594.7 0 548.8 0C503 0 457 0 411.2 0C365.3 0 319.7 0 274 0C228.3 0 182.7 0 137 0C91.3 0 45.7 0 22.8 0L0 0Z" fill="#009473" stroke-linecap="round" stroke-linejoin="miter"></path></svg>