<svg id="visual" viewBox="0 0 960 300" width="960" height="300" xmlns="http://www.w3.org/2000/svg" xmlns:xlink="http://www.w3.org/1999/xlink" version="1.1"><rect x="0" y="0" width="960" height="300" fill="#fff"></rect><path d="M0 183L137 183L137 155L274 155L274 145L411 145L411 142L549 142L549 142L686 142L686 146L823 146L823 175L960 175L960 190L960 301L960 301L823 301L823 301L686 301L686 301L549 301L549 301L411 301L411 301L274 301L274 301L137 301L137 301L0 301Z" fill="#9900ff"></path><path d="M0 223L137 223L137 219L274 219L274 228L411 228L411 180L549 180L549 223L686 223L686 208L823 208L823 198L960 198L960 232L960 301L960 301L823 301L823 301L686 301L686 301L549 301L549 301L411 301L411 301L274 301L274 301L137 301L137 301L0 301Z" fill="#5a03cc"></path><path d="M0 258L137 258L137 254L274 254L274 235L411 235L411 231L549 231L549 232L686 232L686 251L823 251L823 238L960 238L960 230L960 301L960 301L823 301L823 301L686 301L686 301L549 301L549 301L411 301L411 301L274 301L274 301L137 301L137 301L0 301Z" fill="#140098"></path></svg>