<svg id="visual" viewBox="0 0 960 300" width="960" height="300" xmlns="http://www.w3.org/2000/svg" xmlns:xlink="http://www.w3.org/1999/xlink" version="1.1"><rect x="0" y="0" width="960" height="300" fill="#fff"></rect><path d="M0 257L22.8 255.3C45.7 253.7 91.3 250.3 137 247.5C182.7 244.7 228.3 242.3 274 234.8C319.7 227.3 365.3 214.7 411.2 211.2C457 207.7 503 213.3 548.8 214.8C594.7 216.3 640.3 213.7 686 210.2C731.7 206.7 777.3 202.3 823 199C868.7 195.7 914.3 193.3 937.2 192.2L960 191L960 301L937.2 301C914.3 301 868.7 301 823 301C777.3 301 731.7 301 686 301C640.3 301 594.7 301 548.8 301C503 301 457 301 411.2 301C365.3 301 319.7 301 274 301C228.3 301 182.7 301 137 301C91.3 301 45.7 301 22.8 301L0 301Z" fill="#009473" stroke-linecap="round" stroke-linejoin="miter"></path></svg>