<svg id="visual" viewBox="0 0 960 300" width="960" height="300" xmlns="http://www.w3.org/2000/svg" xmlns:xlink="http://www.w3.org/1999/xlink" version="1.1"><rect x="0" y="0" width="960" height="300" fill="#fff"></rect><path d="M0 169L137 169L137 146L274 146L274 139L411 139L411 124L549 124L549 116L686 116L686 166L823 166L823 137L960 137L960 139L960 0L960 0L823 0L823 0L686 0L686 0L549 0L549 0L411 0L411 0L274 0L274 0L137 0L137 0L0 0Z" fill="#9900ff"></path><path d="M0 99L137 99L137 107L274 107L274 71L411 71L411 96L549 96L549 75L686 75L686 84L823 84L823 105L960 105L960 99L960 0L960 0L823 0L823 0L686 0L686 0L549 0L549 0L411 0L411 0L274 0L274 0L137 0L137 0L0 0Z" fill="#5a03cc"></path><path d="M0 49L137 49L137 28L274 28L274 30L411 30L411 75L549 75L549 44L686 44L686 77L823 77L823 54L960 54L960 35L960 0L960 0L823 0L823 0L686 0L686 0L549 0L549 0L411 0L411 0L274 0L274 0L137 0L137 0L0 0Z" fill="#140098"></path></svg>