<svg id="visual" viewBox="0 0 960 300" width="960" height="300" xmlns="http://www.w3.org/2000/svg" xmlns:xlink="http://www.w3.org/1999/xlink" version="1.1"><path d="M0 61L14.5 63C29 65 58 69 87.2 74C116.3 79 145.7 85 174.8 93C204 101 233 111 262 109.5C291 108 320 95 349 88.5C378 82 407 82 436.2 76.5C465.3 71 494.7 60 523.8 62C553 64 582 79 611 91C640 103 669 112 698 114C727 116 756 111 785.2 100.5C814.3 90 843.7 74 872.8 69C902 64 931 70 945.5 73L960 76L960 0L945.5 0C931 0 902 0 872.8 0C843.7 0 814.3 0 785.2 0C756 0 727 0 698 0C669 0 640 0 611 0C582 0 553 0 523.8 0C494.7 0 465.3 0 436.2 0C407 0 378 0 349 0C320 0 291 0 262 0C233 0 204 0 174.8 0C145.7 0 116.3 0 87.2 0C58 0 29 0 14.5 0L0 0Z" fill="#ffffff"></path><path d="M0 127L14.5 127.5C29 128 58 129 87.2 130C116.3 131 145.7 132 174.8 139C204 146 233 159 262 157.5C291 156 320 140 349 132C378 124 407 124 436.2 119.5C465.3 115 494.7 106 523.8 108.5C553 111 582 125 611 138.5C640 152 669 165 698 167C727 169 756 160 785.2 149.5C814.3 139 843.7 127 872.8 121C902 115 931 115 945.5 115L960 115L960 74L945.5 71C931 68 902 62 872.8 67C843.7 72 814.3 88 785.2 98.5C756 109 727 114 698 112C669 110 640 101 611 89C582 77 553 62 523.8 60C494.7 58 465.3 69 436.2 74.5C407 80 378 80 349 86.5C320 93 291 106 262 107.5C233 109 204 99 174.8 91C145.7 83 116.3 77 87.2 72C58 67 29 63 14.5 61L0 59Z" fill="#939cff"></path><path d="M0 145L14.5 146.5C29 148 58 151 87.2 156.5C116.3 162 145.7 170 174.8 179.5C204 189 233 200 262 198C291 196 320 181 349 174.5C378 168 407 170 436.2 167C465.3 164 494.7 156 523.8 159C553 162 582 176 611 187.5C640 199 669 208 698 207C727 206 756 195 785.2 183.5C814.3 172 843.7 160 872.8 156C902 152 931 156 945.5 158L960 160L960 113L945.5 113C931 113 902 113 872.8 119C843.7 125 814.3 137 785.2 147.5C756 158 727 167 698 165C669 163 640 150 611 136.5C582 123 553 109 523.8 106.5C494.7 104 465.3 113 436.2 117.5C407 122 378 122 349 130C320 138 291 154 262 155.5C233 157 204 144 174.8 137C145.7 130 116.3 129 87.2 128C58 127 29 126 14.5 125.5L0 125Z" fill="#0066ff"></path><path d="M0 247L14.5 243.5C29 240 58 233 87.2 231C116.3 229 145.7 232 174.8 236C204 240 233 245 262 247.5C291 250 320 250 349 254C378 258 407 266 436.2 268.5C465.3 271 494.7 268 523.8 263.5C553 259 582 253 611 253.5C640 254 669 261 698 257.5C727 254 756 240 785.2 233C814.3 226 843.7 226 872.8 233C902 240 931 254 945.5 261L960 268L960 158L945.5 156C931 154 902 150 872.8 154C843.7 158 814.3 170 785.2 181.5C756 193 727 204 698 205C669 206 640 197 611 185.5C582 174 553 160 523.8 157C494.7 154 465.3 162 436.2 165C407 168 378 166 349 172.5C320 179 291 194 262 196C233 198 204 187 174.8 177.5C145.7 168 116.3 160 87.2 154.5C58 149 29 146 14.5 144.5L0 143Z" fill="#939cff"></path><path d="M0 301L14.5 301C29 301 58 301 87.2 301C116.3 301 145.7 301 174.8 301C204 301 233 301 262 301C291 301 320 301 349 301C378 301 407 301 436.2 301C465.3 301 494.7 301 523.8 301C553 301 582 301 611 301C640 301 669 301 698 301C727 301 756 301 785.2 301C814.3 301 843.7 301 872.8 301C902 301 931 301 945.5 301L960 301L960 266L945.5 259C931 252 902 238 872.8 231C843.7 224 814.3 224 785.2 231C756 238 727 252 698 255.5C669 259 640 252 611 251.5C582 251 553 257 523.8 261.5C494.7 266 465.3 269 436.2 266.5C407 264 378 256 349 252C320 248 291 248 262 245.5C233 243 204 238 174.8 234C145.7 230 116.3 227 87.2 229C58 231 29 238 14.5 241.5L0 245Z" fill="#ffffff"></path></svg>