<svg id="visual" viewBox="0 0 960 300" width="960" height="300" xmlns="http://www.w3.org/2000/svg" xmlns:xlink="http://www.w3.org/1999/xlink" version="1.1"><rect x="0" y="0" width="960" height="300" fill="#FFFFFF"></rect><path d="M0 127L14.5 130.3C29 133.7 58 140.3 87.2 139.5C116.3 138.7 145.7 130.3 174.8 124.8C204 119.3 233 116.7 262 112.5C291 108.3 320 102.7 349 104.5C378 106.3 407 115.7 436.2 117.3C465.3 119 494.7 113 523.8 114.3C553 115.7 582 124.3 611 129.8C640 135.3 669 137.7 698 139.5C727 141.3 756 142.7 785.2 144.2C814.3 145.7 843.7 147.3 872.8 142C902 136.7 931 124.3 945.5 118.2L960 112L960 0L945.5 0C931 0 902 0 872.8 0C843.7 0 814.3 0 785.2 0C756 0 727 0 698 0C669 0 640 0 611 0C582 0 553 0 523.8 0C494.7 0 465.3 0 436.2 0C407 0 378 0 349 0C320 0 291 0 262 0C233 0 204 0 174.8 0C145.7 0 116.3 0 87.2 0C58 0 29 0 14.5 0L0 0Z" fill="#fa7268"></path><path d="M0 106L14.5 108.8C29 111.7 58 117.3 87.2 121.8C116.3 126.3 145.7 129.7 174.8 129.5C204 129.3 233 125.7 262 119C291 112.3 320 102.7 349 96.7C378 90.7 407 88.3 436.2 91.5C465.3 94.7 494.7 103.3 523.8 111C553 118.7 582 125.3 611 128.5C640 131.7 669 131.3 698 124.8C727 118.3 756 105.7 785.2 104.2C814.3 102.7 843.7 112.3 872.8 117.7C902 123 931 124 945.5 124.5L960 125L960 0L945.5 0C931 0 902 0 872.8 0C843.7 0 814.3 0 785.2 0C756 0 727 0 698 0C669 0 640 0 611 0C582 0 553 0 523.8 0C494.7 0 465.3 0 436.2 0C407 0 378 0 349 0C320 0 291 0 262 0C233 0 204 0 174.8 0C145.7 0 116.3 0 87.2 0C58 0 29 0 14.5 0L0 0Z" fill="#f46767"></path><path d="M0 112L14.5 108.8C29 105.7 58 99.3 87.2 94.5C116.3 89.7 145.7 86.3 174.8 85.2C204 84 233 85 262 87.5C291 90 320 94 349 95C378 96 407 94 436.2 93.2C465.3 92.3 494.7 92.7 523.8 90.8C553 89 582 85 611 85.7C640 86.3 669 91.7 698 96.5C727 101.3 756 105.7 785.2 103.3C814.3 101 843.7 92 872.8 90.8C902 89.7 931 96.3 945.5 99.7L960 103L960 0L945.5 0C931 0 902 0 872.8 0C843.7 0 814.3 0 785.2 0C756 0 727 0 698 0C669 0 640 0 611 0C582 0 553 0 523.8 0C494.7 0 465.3 0 436.2 0C407 0 378 0 349 0C320 0 291 0 262 0C233 0 204 0 174.8 0C145.7 0 116.3 0 87.2 0C58 0 29 0 14.5 0L0 0Z" fill="#ee5c67"></path><path d="M0 78L14.5 77.7C29 77.3 58 76.7 87.2 79.5C116.3 82.3 145.7 88.7 174.8 90.5C204 92.3 233 89.7 262 83.8C291 78 320 69 349 69.2C378 69.3 407 78.7 436.2 82C465.3 85.3 494.7 82.7 523.8 81.8C553 81 582 82 611 81.2C640 80.3 669 77.7 698 76.2C727 74.7 756 74.3 785.2 76.7C814.3 79 843.7 84 872.8 82.5C902 81 931 73 945.5 69L960 65L960 0L945.5 0C931 0 902 0 872.8 0C843.7 0 814.3 0 785.2 0C756 0 727 0 698 0C669 0 640 0 611 0C582 0 553 0 523.8 0C494.7 0 465.3 0 436.2 0C407 0 378 0 349 0C320 0 291 0 262 0C233 0 204 0 174.8 0C145.7 0 116.3 0 87.2 0C58 0 29 0 14.5 0L0 0Z" fill="#e75167"></path><path d="M0 59L14.5 57.2C29 55.3 58 51.7 87.2 54.8C116.3 58 145.7 68 174.8 69.8C204 71.7 233 65.3 262 64.5C291 63.7 320 68.3 349 70.8C378 73.3 407 73.7 436.2 73C465.3 72.3 494.7 70.7 523.8 70.8C553 71 582 73 611 71.2C640 69.3 669 63.7 698 59.5C727 55.3 756 52.7 785.2 54.8C814.3 57 843.7 64 872.8 68.5C902 73 931 75 945.5 76L960 77L960 0L945.5 0C931 0 902 0 872.8 0C843.7 0 814.3 0 785.2 0C756 0 727 0 698 0C669 0 640 0 611 0C582 0 553 0 523.8 0C494.7 0 465.3 0 436.2 0C407 0 378 0 349 0C320 0 291 0 262 0C233 0 204 0 174.8 0C145.7 0 116.3 0 87.2 0C58 0 29 0 14.5 0L0 0Z" fill="#df4667"></path><path d="M0 41L14.5 42.3C29 43.7 58 46.3 87.2 46.8C116.3 47.3 145.7 45.7 174.8 47.2C204 48.7 233 53.3 262 55.2C291 57 320 56 349 54.3C378 52.7 407 50.3 436.2 48.8C465.3 47.3 494.7 46.7 523.8 44.7C553 42.7 582 39.3 611 38.7C640 38 669 40 698 43.3C727 46.7 756 51.3 785.2 51.3C814.3 51.3 843.7 46.7 872.8 43.3C902 40 931 38 945.5 37L960 36L960 0L945.5 0C931 0 902 0 872.8 0C843.7 0 814.3 0 785.2 0C756 0 727 0 698 0C669 0 640 0 611 0C582 0 553 0 523.8 0C494.7 0 465.3 0 436.2 0C407 0 378 0 349 0C320 0 291 0 262 0C233 0 204 0 174.8 0C145.7 0 116.3 0 87.2 0C58 0 29 0 14.5 0L0 0Z" fill="#d73b67"></path><path d="M0 33L14.5 32.7C29 32.3 58 31.7 87.2 30.2C116.3 28.7 145.7 26.3 174.8 28.7C204 31 233 38 262 40.3C291 42.7 320 40.3 349 38.3C378 36.3 407 34.7 436.2 33.3C465.3 32 494.7 31 523.8 30.2C553 29.3 582 28.7 611 29.3C640 30 669 32 698 31.8C727 31.7 756 29.3 785.2 29.5C814.3 29.7 843.7 32.3 872.8 31.7C902 31 931 27 945.5 25L960 23L960 0L945.5 0C931 0 902 0 872.8 0C843.7 0 814.3 0 785.2 0C756 0 727 0 698 0C669 0 640 0 611 0C582 0 553 0 523.8 0C494.7 0 465.3 0 436.2 0C407 0 378 0 349 0C320 0 291 0 262 0C233 0 204 0 174.8 0C145.7 0 116.3 0 87.2 0C58 0 29 0 14.5 0L0 0Z" fill="#cf3068"></path><path d="M0 28L14.5 27.2C29 26.3 58 24.7 87.2 22.7C116.3 20.7 145.7 18.3 174.8 17.8C204 17.3 233 18.7 262 19.2C291 19.7 320 19.3 349 20.3C378 21.3 407 23.7 436.2 22.8C465.3 22 494.7 18 523.8 17.8C553 17.7 582 21.3 611 21C640 20.7 669 16.3 698 14.7C727 13 756 14 785.2 16.3C814.3 18.7 843.7 22.3 872.8 22.3C902 22.3 931 18.7 945.5 16.8L960 15L960 0L945.5 0C931 0 902 0 872.8 0C843.7 0 814.3 0 785.2 0C756 0 727 0 698 0C669 0 640 0 611 0C582 0 553 0 523.8 0C494.7 0 465.3 0 436.2 0C407 0 378 0 349 0C320 0 291 0 262 0C233 0 204 0 174.8 0C145.7 0 116.3 0 87.2 0C58 0 29 0 14.5 0L0 0Z" fill="#c62368"></path></svg>